<?xml version="1.0" encoding="UTF-8"?><svg id="_イヤー_2" xmlns="http://www.w3.org/2000/svg" xmlns:xlink="http://www.w3.org/1999/xlink" viewBox="0 0 671.43 189.99"><defs><style>.cls-1{fill:url(#_称未設定グラデーション_105);}.cls-2{fill:#4d4d4d;}</style><linearGradient id="_称未設定グラデーション_105" x1="117.64" y1="197.25" x2="117.64" y2="-1.88" gradientTransform="matrix(1, 0, 0, 1, 0, 0)" gradientUnits="userSpaceOnUse"><stop offset="0" stop-color="#ff7550"/><stop offset=".21" stop-color="#f94675"/><stop offset=".49" stop-color="#da6ef4"/><stop offset=".78" stop-color="#564fec"/><stop offset=".97" stop-color="#12b1dc"/></linearGradient></defs><g id="_イヤー_1-2"><g><path class="cls-1" d="M223.83,113.5c-17.66,0-3.96-25.79-24.48-25.79-32.14,0,8.84,102.28-26.22,102.28s3.43-99.75-26.07-99.75c-27.21,0-6.01,38.55-30.41,38.55-29.68,0,2.66-64.91-31.46-64.91s-1.11,80.55-29.81,80.83c-25.11,.24,2.46-63.84-20.94-63.84-17.11,0-3.77,26.91-21.65,26.91C-.67,107.78,.05,89.51,0,72.24-.05,54.03,1.74,26.45,13.52,24.91c15.78-2.07,11.04,18.97,29.34,16.68C63,39.06,53.42,0,80.94,0c32.17,0,17.79,45.74,40.22,48.84,13.96,1.93,12.49-15.14,29.89-12.06,12.01,2.12,8.57,18.09,22.99,17.08,15.77-1.1,11.65-32.51,32.66-36.76,16.39-3.31,28.05,23.28,28.05,51.33,0,21.4,4.19,45.07-10.93,45.07Z"/><g><path class="cls-2" d="M315.92,137.3c-7.19,0-12.11-4.04-18.03-12.99l-7.44-11.22c-4.29,4.92-7.06,8.7-8.95,11.98-2.27,3.91-3.15,7.31-3.78,11.48h-7.69c-3.91,0-6.94-2.65-6.94-6.05,0-8.07,4.67-14.75,13.11-23.83l5.55-5.93-7.19-10.34c-8.95-12.86-11.85-17.4-12.11-22.19h10.09c3.28,0,7.44,2.14,15.01,12.86l6.94,9.83c10.84-12.23,12.61-15.76,13.74-22.57h6.43c4.92,0,6.93,3.4,6.93,7.19,0,3.03-2.52,8.32-7.94,15.38-2.77,3.66-6.3,7.82-10.34,12.36l7.44,10.84c7.31,10.72,10.34,13.49,16.27,14.75,0,4.79-3.66,8.45-11.1,8.45Z"/><path class="cls-2" d="M367.18,138.19h-9.33c-16.14,0-24.08-7.06-24.08-20.55V54.96c4.16-1.51,15.64-3.91,22.82-3.91h10.47c16.52,0,28.25,8.7,28.25,22.82,0,9.58-5.17,15.76-13.75,18.28,8.7,2.4,15.26,11.35,15.26,18.92,0,17.4-13.87,27.11-29.63,27.11Zm-2.52-72.76h-6.43c-2.14,0-5.04,.5-7.44,.88v19.55h13.24c7.69,0,14-3.03,14-10.47s-6.94-9.96-13.37-9.96Zm0,33.79h-13.75v17.78c0,3.03,3.28,5.42,7.57,5.42h7.06c9.33,0,13.87-4.29,13.87-10.84,0-9.33-4.67-12.36-14.75-12.36Z"/><path class="cls-2" d="M434.96,138.94h-3.4c-16.14,0-27.24-9.08-27.24-21.56s8.83-21.31,33.79-21.31h5.93v-.88c0-9.58-4.54-12.48-14.63-12.48-12.23,0-19.04,4.67-21.56,7.82h-.63v-5.42c0-7.57,6.81-16.64,24.72-16.64,15.13,0,28.75,7.06,28.75,30.52v15.64c0,14.38-10.59,24.34-25.72,24.34Zm9.21-30.77h-6.05c-12.86,0-16.52,3.03-16.52,8.57s4.29,8.45,11.73,8.45,10.84-3.53,10.84-10.47v-6.56Z"/><path class="cls-2" d="M475.52,59c2.27-2.65,5.3-4.67,7.94-4.67h3.91v15.38h23.58v6.94c0,3.53-3.15,8.07-10.09,8.07h-13.49v26.61c0,8.83,3.91,12.23,10.72,12.23,5.42,0,9.58-.76,12.23-2.4h.63v6.05c0,6.94-5.04,11.35-14.88,11.35-17.15,0-25.47-9.33-25.47-25.22v-40.86c0-6.68,1.26-9.21,4.92-13.49Z"/><path class="cls-2" d="M523.13,58.37c2.27-2.65,5.3-4.67,7.94-4.67h3.91v15.38h23.58v6.94c0,3.53-3.15,8.07-10.09,8.07h-13.49v26.61c0,8.83,3.91,12.23,10.72,12.23,5.42,0,9.58-.76,12.23-2.4h.63v6.05c0,6.94-5.04,11.35-14.88,11.35-17.15,0-25.47-9.33-25.47-25.22v-40.86c0-6.68,1.26-9.21,4.92-13.49Z"/><path class="cls-2" d="M592.05,110.45h-11.1c1.26,8.57,9.08,14,19.04,14,7.06,0,15.38-1.39,20.81-6.43h.63v5.3c0,8.7-5.93,15.38-24.59,15.38-16.9,0-33.42-13.37-33.42-34.17,0-22.7,13.87-36.95,33.29-36.95,14.12,0,27.24,10.09,27.24,26.35,0,12.48-9.46,16.52-31.9,16.52Zm3.15-28.75c-8.2,0-13.87,6.68-14.25,14.5l-.13,2.27h7.57c16.01,0,19.67-1.77,19.67-6.56,0-6.81-5.04-10.21-12.86-10.21Z"/><path class="cls-2" d="M670.79,85.6c-2.52-1.01-5.42-2.02-9.83-2.02-7.57,0-11.73,4.16-11.73,14.5v39.09h-4.67c-7.57,0-12.36-3.78-12.36-10.84v-31.27c0-13.62,7.19-26.61,25.09-26.61,10.47,0,14.12,5.93,14.12,11.1v6.05h-.63Z"/></g></g></g></svg>